<svg width="240" height="120" viewBox="0 0 240 120" xmlns="http://www.w3.org/2000/svg">
  <defs>
    <filter id="glow-gold" x="-50%" y="-50%" width="200%" height="200%">
      <feGaussianBlur stdDeviation="4" result="blur"/>
      <feMerge><feMergeNode in="blur"/><feMergeNode in="SourceGraphic"/></feMerge>
    </filter>
    <style>
      .fill { fill: #f7da08; fill-opacity: 0.15; }
      .line { fill: none; stroke: #f7da08; stroke-width: 2.5; stroke-linecap: round; stroke-linejoin: round; filter: url(#glow-gold); }
      .dot  { fill: none; stroke: #f7da08; stroke-width: 4; stroke-linecap: round; filter: url(#glow-gold); }
    </style>
  </defs>

  <path class="fill" d="M 20 55 C 18 30, 40 10, 120 8 C 200 10, 222 30, 220 55 C 220 72, 210 85, 195 94 C 175 104, 150 108, 120 108 C 90 108, 65 104, 45 94 C 30 85, 20 72, 20 55 Z"/>

  <path class="line" d="M 20 55 C 18 30, 40 10, 120 8 C 200 10, 222 30, 220 55 C 220 72, 210 85, 195 94 C 175 104, 150 108, 120 108 C 90 108, 65 104, 45 94 C 30 85, 20 72, 20 55 Z"/>

  <line class="dot" x1="113" y1="84" x2="120" y2="84"/>
  <line class="dot" x1="127" y1="84" x2="134" y2="84"/>

</svg>
