<svg width="200" height="480" viewBox="150 70 200 480" xmlns="http://www.w3.org/2000/svg">
  <defs>
    <filter id="glow-gold" x="-50%" y="-50%" width="200%" height="200%">
      <feGaussianBlur stdDeviation="5" result="blur"/>
      <feMerge><feMergeNode in="blur"/><feMergeNode in="SourceGraphic"/></feMerge>
    </filter>
    <style>
      .fill { fill: #f7da08; fill-opacity: 0.15; transition: fill 0.6s ease, fill-opacity 0.6s ease; }
      .line { fill: none; stroke: #f7da08; stroke-width: 2.5; stroke-linecap: round; stroke-linejoin: round; filter: url(#glow-gold); transition: stroke 0.6s ease; }
      .dot  { fill: none; stroke: #f7da08; stroke-width: 4; stroke-linecap: round; transition: stroke 0.6s ease; }
    </style>
  </defs>

  <path class="fill" d="M 168 178 C 167 163, 170 135, 180 120 C 190 107, 215 100, 250 100 C 285 100, 310 107, 320 120 C 330 135, 333 163, 332 178 C 335 198, 344 215, 344 237 C 344 259, 335 274, 333 293 C 331 313, 337 333, 340 352 C 342 369, 340 389, 336 405 C 332 420, 325 430, 318 436 C 308 442, 282 446, 250 446 C 218 446, 192 442, 182 436 C 175 430, 168 420, 164 405 C 160 389, 158 369, 160 352 C 163 333, 169 313, 167 293 C 165 274, 156 259, 156 237 C 156 215, 165 198, 168 178 Z"/>

  <path class="line" d="M 168 178 C 167 163, 170 135, 180 120 C 190 107, 215 100, 250 100 C 285 100, 310 107, 320 120 C 330 135, 333 163, 332 178 C 335 198, 344 215, 344 237 C 344 259, 335 274, 333 293 C 331 313, 337 333, 340 352 C 342 369, 340 389, 336 405 C 332 420, 325 430, 318 436 C 308 442, 282 446, 250 446 C 218 446, 192 442, 182 436 C 175 430, 168 420, 164 405 C 160 389, 158 369, 160 352 C 163 333, 169 313, 167 293 C 165 274, 156 259, 156 237 C 156 215, 165 198, 168 178 Z"/>

  <path class="line" d="M 168 178 C 190 170, 218 166, 250 166 C 282 166, 310 170, 332 178"/>
  <path class="line" d="M 160 352 C 183 342, 215 338, 250 338 C 285 338, 317 342, 340 352"/>

  <line class="dot" x1="243" y1="260" x2="250" y2="260"/>
  <line class="dot" x1="257" y1="260" x2="264" y2="260"/>

  <line class="dot" x1="243" y1="393" x2="250" y2="393"/>
  <line class="dot" x1="257" y1="393" x2="264" y2="393"/>

</svg>
